<?xml version="1.0" standalone="no"?>
<!DOCTYPE svg PUBLIC "-//W3C//DTD SVG 20010904//EN"
 "http://www.w3.org/TR/2001/REC-SVG-20010904/DTD/svg10.dtd">
<svg version="1.0" xmlns="http://www.w3.org/2000/svg"
 width="512.000000pt" height="512.000000pt" viewBox="0 0 512.000000 512.000000"
 preserveAspectRatio="xMidYMid meet">

<g transform="translate(0.000000,512.000000) scale(0.100000,-0.100000)"
 >
<path  d="M2295 4671 c-400 -73 -730 -262 -978 -561 -176 -212 -290 -451 -349
-727 l-23 -108 -3 -1338 -3 -1337 -224 0 -223 0 -31 -26 c-39 -33 -43 -83 -8
-118 23 -23 23 -23 432 -29 529 -9 2821 -9 3350 0 409 6 409 6 432 29 35 35
31 85 -8 118 l-31 26 -223 0 -224 0 -4 1343 c-3 1324 -3 1343 -24 1439 -145
659 -621 1138 -1268 1278 -144 32 -449 37 -590 11z m538 -525 c200 -52 379
-158 526 -312 176 -184 283 -417 306 -666 l7 -78 -1112 0 -1112 0 7 78 c23
249 130 483 306 666 168 176 370 286 606 331 121 23 341 14 466 -19z m-573
-1886 l0 -230 -405 0 -405 0 0 230 0 230 405 0 405 0 0 -230z m1410 0 l0 -230
-405 0 -405 0 0 230 0 230 405 0 405 0 0 -230z m-1410 -1075 l0 -245 -405 0
-405 0 0 245 0 245 405 0 405 0 0 -245z m1410 0 l0 -245 -405 0 -405 0 0 245
0 245 405 0 405 0 0 -245z"/>
</g>
</svg>
