<?xml version="1.0" standalone="no"?>
<!DOCTYPE svg PUBLIC "-//W3C//DTD SVG 20010904//EN"
 "http://www.w3.org/TR/2001/REC-SVG-20010904/DTD/svg10.dtd">
<svg version="1.0" xmlns="http://www.w3.org/2000/svg"
 width="512.000000pt" height="512.000000pt" viewBox="0 0 512.000000 512.000000"
 preserveAspectRatio="xMidYMid meet">

<g transform="translate(0.000000,512.000000) scale(0.100000,-0.100000)"
fill="#000000" stroke="none">
<path d="M2367 5109 c-340 -24 -703 -129 -1007 -291 -583 -310 -1030 -844
-1233 -1474 -264 -815 -97 -1718 440 -2385 408 -506 978 -831 1633 -930 185
-28 504 -30 683 -6 588 81 1115 346 1512 758 383 399 612 866 696 1424 31 200
30 512 0 715 -121 799 -574 1464 -1271 1865 -325 186 -693 297 -1085 325 -154
11 -208 11 -368 -1z m479 -944 c202 -53 425 -156 616 -287 224 -153 436 -412
569 -693 96 -202 187 -516 160 -549 -16 -19 -45 -21 -59 -3 -5 6 -24 71 -42
142 -104 420 -315 758 -625 1000 -207 162 -483 287 -727 331 -99 18 -118 26
-118 53 0 49 53 50 226 6z m-80 -449 c430 -105 743 -381 894 -789 33 -90 70
-228 70 -262 0 -25 -5 -35 -20 -40 -31 -10 -48 10 -61 73 -33 161 -134 388
-228 513 -165 218 -445 391 -715 440 -85 15 -106 37 -70 73 19 20 10 20 130
-8z m-15 -502 c152 -45 311 -167 388 -298 40 -67 91 -205 91 -246 0 -66 -63
-64 -80 3 -70 270 -229 426 -492 481 -31 7 -46 40 -28 61 16 19 53 19 121 -1z"/>
</g>
</svg>
